<mxfile host="app.diagrams.net" modified="2023-03-28T02:17:48.538Z" agent="5.0 (Macintosh; Intel Mac OS X 10_15_7) AppleWebKit/537.36 (KHTML, like Gecko) Chrome/111.0.0.0 Safari/537.36" etag="tuyTw5ybFzgySjGdWrHl" version="21.0.10" type="github">
  <diagram name="Page-1" id="c7558073-3199-34d8-9f00-42111426c3f3">
    <mxGraphModel dx="1026" dy="661" grid="1" gridSize="10" guides="1" tooltips="1" connect="1" arrows="1" fold="1" page="1" pageScale="1" pageWidth="10000" pageHeight="10000" background="none" math="0" shadow="0">
      <root>
        <mxCell id="0" />
        <mxCell id="1" parent="0" />
        <mxCell id="Z9Bw9MqwhjAggTPwWbrQ-98" value="查询当天create执行记录" style="edgeStyle=orthogonalEdgeStyle;rounded=1;orthogonalLoop=1;jettySize=auto;html=1;labelBackgroundColor=none;strokeColor=#A8201A;fontColor=default;" parent="1" source="Z9Bw9MqwhjAggTPwWbrQ-96" target="Z9Bw9MqwhjAggTPwWbrQ-97" edge="1">
          <mxGeometry relative="1" as="geometry" />
        </mxCell>
        <mxCell id="Z9Bw9MqwhjAggTPwWbrQ-96" value="bill_execute" style="whiteSpace=wrap;align=center;verticalAlign=middle;fontStyle=1;strokeWidth=3;fillColor=#FAE5C7;rounded=1;labelBackgroundColor=none;strokeColor=#0F8B8D;fontColor=#143642;" parent="1" vertex="1">
          <mxGeometry x="1240" y="50" width="90" height="60" as="geometry" />
        </mxCell>
        <mxCell id="Z9Bw9MqwhjAggTPwWbrQ-100" value="" style="edgeStyle=orthogonalEdgeStyle;rounded=1;orthogonalLoop=1;jettySize=auto;html=1;labelBackgroundColor=none;strokeColor=#A8201A;fontColor=default;" parent="1" source="Z9Bw9MqwhjAggTPwWbrQ-97" target="Z9Bw9MqwhjAggTPwWbrQ-99" edge="1">
          <mxGeometry relative="1" as="geometry" />
        </mxCell>
        <mxCell id="Z9Bw9MqwhjAggTPwWbrQ-101" value="是" style="edgeLabel;html=1;align=center;verticalAlign=middle;resizable=0;points=[];rounded=1;labelBackgroundColor=none;fontColor=#143642;" parent="Z9Bw9MqwhjAggTPwWbrQ-100" vertex="1" connectable="0">
          <mxGeometry x="-0.2949" y="-3" relative="1" as="geometry">
            <mxPoint as="offset" />
          </mxGeometry>
        </mxCell>
        <mxCell id="Z9Bw9MqwhjAggTPwWbrQ-103" value="" style="edgeStyle=orthogonalEdgeStyle;rounded=1;orthogonalLoop=1;jettySize=auto;html=1;labelBackgroundColor=none;strokeColor=#A8201A;fontColor=default;" parent="1" source="Z9Bw9MqwhjAggTPwWbrQ-97" target="Z9Bw9MqwhjAggTPwWbrQ-102" edge="1">
          <mxGeometry relative="1" as="geometry" />
        </mxCell>
        <mxCell id="Z9Bw9MqwhjAggTPwWbrQ-104" value="是" style="edgeLabel;html=1;align=center;verticalAlign=middle;resizable=0;points=[];rounded=1;labelBackgroundColor=none;fontColor=#143642;" parent="Z9Bw9MqwhjAggTPwWbrQ-103" vertex="1" connectable="0">
          <mxGeometry x="-0.1522" y="3" relative="1" as="geometry">
            <mxPoint as="offset" />
          </mxGeometry>
        </mxCell>
        <mxCell id="Z9Bw9MqwhjAggTPwWbrQ-97" value="exist并且memberid为空" style="rhombus;whiteSpace=wrap;html=1;fillColor=#FAE5C7;fontStyle=1;strokeWidth=3;rounded=1;labelBackgroundColor=none;strokeColor=#0F8B8D;fontColor=#143642;" parent="1" vertex="1">
          <mxGeometry x="1230" y="171" width="107.5" height="109" as="geometry" />
        </mxCell>
        <mxCell id="Z9Bw9MqwhjAggTPwWbrQ-99" value="return" style="whiteSpace=wrap;html=1;fillColor=#FAE5C7;fontStyle=1;strokeWidth=3;rounded=1;labelBackgroundColor=none;strokeColor=#0F8B8D;fontColor=#143642;" parent="1" vertex="1">
          <mxGeometry x="1070" y="203.5" width="100" height="44" as="geometry" />
        </mxCell>
        <mxCell id="Z9Bw9MqwhjAggTPwWbrQ-106" value="" style="edgeStyle=orthogonalEdgeStyle;rounded=1;orthogonalLoop=1;jettySize=auto;html=1;labelBackgroundColor=none;strokeColor=#A8201A;fontColor=default;" parent="1" source="Z9Bw9MqwhjAggTPwWbrQ-102" target="Z9Bw9MqwhjAggTPwWbrQ-105" edge="1">
          <mxGeometry relative="1" as="geometry" />
        </mxCell>
        <mxCell id="Z9Bw9MqwhjAggTPwWbrQ-111" value="返回会员权限列表" style="edgeLabel;html=1;align=center;verticalAlign=middle;resizable=0;points=[];rounded=1;labelBackgroundColor=none;fontColor=#143642;" parent="Z9Bw9MqwhjAggTPwWbrQ-106" vertex="1" connectable="0">
          <mxGeometry x="-0.02" y="-1" relative="1" as="geometry">
            <mxPoint as="offset" />
          </mxGeometry>
        </mxCell>
        <mxCell id="Z9Bw9MqwhjAggTPwWbrQ-102" value="查询账单权限，所有未删除" style="whiteSpace=wrap;html=1;fillColor=#FAE5C7;fontStyle=1;strokeWidth=3;rounded=1;labelBackgroundColor=none;strokeColor=#0F8B8D;fontColor=#143642;" parent="1" vertex="1">
          <mxGeometry x="1223.75" y="331" width="120" height="60" as="geometry" />
        </mxCell>
        <mxCell id="Z9Bw9MqwhjAggTPwWbrQ-110" value="" style="edgeStyle=orthogonalEdgeStyle;rounded=1;orthogonalLoop=1;jettySize=auto;html=1;labelBackgroundColor=none;strokeColor=#A8201A;fontColor=default;" parent="1" source="Z9Bw9MqwhjAggTPwWbrQ-105" target="Z9Bw9MqwhjAggTPwWbrQ-109" edge="1">
          <mxGeometry relative="1" as="geometry" />
        </mxCell>
        <mxCell id="Z9Bw9MqwhjAggTPwWbrQ-105" value="循环处理" style="rhombus;whiteSpace=wrap;html=1;fillColor=#FAE5C7;fontStyle=1;strokeWidth=3;rounded=1;labelBackgroundColor=none;strokeColor=#0F8B8D;fontColor=#143642;" parent="1" vertex="1">
          <mxGeometry x="1243.75" y="441" width="80" height="80" as="geometry" />
        </mxCell>
        <mxCell id="Z9Bw9MqwhjAggTPwWbrQ-113" value="" style="edgeStyle=orthogonalEdgeStyle;rounded=1;orthogonalLoop=1;jettySize=auto;html=1;labelBackgroundColor=none;strokeColor=#A8201A;fontColor=default;" parent="1" source="Z9Bw9MqwhjAggTPwWbrQ-109" target="Z9Bw9MqwhjAggTPwWbrQ-112" edge="1">
          <mxGeometry relative="1" as="geometry" />
        </mxCell>
        <mxCell id="Z9Bw9MqwhjAggTPwWbrQ-109" value="获取会员号下单商户列表" style="rounded=1;whiteSpace=wrap;html=1;fillColor=#FAE5C7;fontStyle=1;strokeWidth=3;labelBackgroundColor=none;strokeColor=#0F8B8D;fontColor=#143642;" parent="1" vertex="1">
          <mxGeometry x="1226.25" y="550" width="115" height="50" as="geometry" />
        </mxCell>
        <mxCell id="Z9Bw9MqwhjAggTPwWbrQ-157" value="" style="edgeStyle=orthogonalEdgeStyle;rounded=0;orthogonalLoop=1;jettySize=auto;html=1;strokeColor=#A8201A;fontColor=#143642;fillColor=#FAE5C7;" parent="1" source="Z9Bw9MqwhjAggTPwWbrQ-112" target="Z9Bw9MqwhjAggTPwWbrQ-156" edge="1">
          <mxGeometry relative="1" as="geometry" />
        </mxCell>
        <mxCell id="Z9Bw9MqwhjAggTPwWbrQ-112" value="获取会员下账单配置列表" style="rounded=1;whiteSpace=wrap;html=1;fillColor=#FAE5C7;fontStyle=1;strokeWidth=3;labelBackgroundColor=none;strokeColor=#0F8B8D;fontColor=#143642;" parent="1" vertex="1">
          <mxGeometry x="1223.75" y="660" width="120" height="60" as="geometry" />
        </mxCell>
        <mxCell id="Z9Bw9MqwhjAggTPwWbrQ-116" value="" style="edgeStyle=orthogonalEdgeStyle;rounded=0;orthogonalLoop=1;jettySize=auto;html=1;strokeColor=#A8201A;fontColor=#143642;fillColor=#FAE5C7;" parent="1" source="Z9Bw9MqwhjAggTPwWbrQ-114" edge="1">
          <mxGeometry relative="1" as="geometry">
            <mxPoint x="2210" y="126" as="targetPoint" />
          </mxGeometry>
        </mxCell>
        <mxCell id="Z9Bw9MqwhjAggTPwWbrQ-114" value="开始" style="rounded=1;whiteSpace=wrap;html=1;strokeColor=#d6b656;fillColor=#fff2cc;" parent="1" vertex="1">
          <mxGeometry x="2160" y="50" width="100" height="40" as="geometry" />
        </mxCell>
        <mxCell id="Z9Bw9MqwhjAggTPwWbrQ-119" value="有值" style="edgeStyle=orthogonalEdgeStyle;rounded=0;orthogonalLoop=1;jettySize=auto;html=1;strokeColor=#A8201A;fontColor=#143642;fillColor=#FAE5C7;" parent="1" source="Z9Bw9MqwhjAggTPwWbrQ-117" target="Z9Bw9MqwhjAggTPwWbrQ-118" edge="1">
          <mxGeometry relative="1" as="geometry" />
        </mxCell>
        <mxCell id="Z9Bw9MqwhjAggTPwWbrQ-121" value="" style="edgeStyle=orthogonalEdgeStyle;rounded=0;orthogonalLoop=1;jettySize=auto;html=1;strokeColor=#A8201A;fontColor=#143642;fillColor=#FAE5C7;" parent="1" source="Z9Bw9MqwhjAggTPwWbrQ-117" target="Z9Bw9MqwhjAggTPwWbrQ-120" edge="1">
          <mxGeometry relative="1" as="geometry" />
        </mxCell>
        <mxCell id="Z9Bw9MqwhjAggTPwWbrQ-122" value="无值" style="edgeLabel;html=1;align=center;verticalAlign=middle;resizable=0;points=[];fontColor=#143642;" parent="Z9Bw9MqwhjAggTPwWbrQ-121" vertex="1" connectable="0">
          <mxGeometry x="-0.3667" relative="1" as="geometry">
            <mxPoint y="1" as="offset" />
          </mxGeometry>
        </mxCell>
        <mxCell id="Z9Bw9MqwhjAggTPwWbrQ-117" value="redis缓存取值" style="rhombus;whiteSpace=wrap;html=1;strokeColor=#d6b656;fillColor=#fff2cc;" parent="1" vertex="1">
          <mxGeometry x="2170" y="126" width="80" height="80" as="geometry" />
        </mxCell>
        <mxCell id="Z9Bw9MqwhjAggTPwWbrQ-118" value="return" style="rounded=1;whiteSpace=wrap;html=1;fillColor=#fff2cc;strokeColor=#d6b656;" parent="1" vertex="1">
          <mxGeometry x="2010" y="142" width="100" height="44" as="geometry" />
        </mxCell>
        <mxCell id="Z9Bw9MqwhjAggTPwWbrQ-125" value="" style="edgeStyle=orthogonalEdgeStyle;rounded=0;orthogonalLoop=1;jettySize=auto;html=1;strokeColor=#A8201A;fontColor=#143642;fillColor=#FAE5C7;" parent="1" source="Z9Bw9MqwhjAggTPwWbrQ-120" target="Z9Bw9MqwhjAggTPwWbrQ-124" edge="1">
          <mxGeometry relative="1" as="geometry" />
        </mxCell>
        <mxCell id="Z9Bw9MqwhjAggTPwWbrQ-120" value="获取路由配置" style="rounded=1;whiteSpace=wrap;html=1;fillColor=#fff2cc;strokeColor=#d6b656;" parent="1" vertex="1">
          <mxGeometry x="2160" y="257" width="100" height="44" as="geometry" />
        </mxCell>
        <mxCell id="Z9Bw9MqwhjAggTPwWbrQ-127" value="" style="edgeStyle=orthogonalEdgeStyle;rounded=0;orthogonalLoop=1;jettySize=auto;html=1;strokeColor=#A8201A;fontColor=#143642;fillColor=#FAE5C7;" parent="1" source="Z9Bw9MqwhjAggTPwWbrQ-124" target="Z9Bw9MqwhjAggTPwWbrQ-126" edge="1">
          <mxGeometry relative="1" as="geometry" />
        </mxCell>
        <mxCell id="Z9Bw9MqwhjAggTPwWbrQ-128" value="有值" style="edgeLabel;html=1;align=center;verticalAlign=middle;resizable=0;points=[];fontColor=#143642;" parent="Z9Bw9MqwhjAggTPwWbrQ-127" vertex="1" connectable="0">
          <mxGeometry x="-0.2609" y="-1" relative="1" as="geometry">
            <mxPoint y="1" as="offset" />
          </mxGeometry>
        </mxCell>
        <mxCell id="Z9Bw9MqwhjAggTPwWbrQ-130" value="" style="edgeStyle=orthogonalEdgeStyle;rounded=0;orthogonalLoop=1;jettySize=auto;html=1;strokeColor=#A8201A;fontColor=#143642;fillColor=#FAE5C7;" parent="1" source="Z9Bw9MqwhjAggTPwWbrQ-124" target="Z9Bw9MqwhjAggTPwWbrQ-129" edge="1">
          <mxGeometry relative="1" as="geometry" />
        </mxCell>
        <mxCell id="Z9Bw9MqwhjAggTPwWbrQ-131" value="为空" style="edgeLabel;html=1;align=center;verticalAlign=middle;resizable=0;points=[];fontColor=#143642;" parent="Z9Bw9MqwhjAggTPwWbrQ-130" vertex="1" connectable="0">
          <mxGeometry x="-0.1333" y="1" relative="1" as="geometry">
            <mxPoint as="offset" />
          </mxGeometry>
        </mxCell>
        <mxCell id="Z9Bw9MqwhjAggTPwWbrQ-124" value="查询用户路由配置" style="rhombus;whiteSpace=wrap;html=1;fillColor=#f8cecc;strokeColor=#b85450;rounded=1;" parent="1" vertex="1">
          <mxGeometry x="2170" y="341" width="80" height="80" as="geometry" />
        </mxCell>
        <mxCell id="Z9Bw9MqwhjAggTPwWbrQ-137" value="" style="edgeStyle=orthogonalEdgeStyle;rounded=0;orthogonalLoop=1;jettySize=auto;html=1;strokeColor=#A8201A;fontColor=#143642;fillColor=#FAE5C7;" parent="1" source="Z9Bw9MqwhjAggTPwWbrQ-126" target="Z9Bw9MqwhjAggTPwWbrQ-136" edge="1">
          <mxGeometry relative="1" as="geometry" />
        </mxCell>
        <mxCell id="Z9Bw9MqwhjAggTPwWbrQ-126" value="根据策略code获取策略handler" style="whiteSpace=wrap;html=1;fillColor=#fff2cc;strokeColor=#d6b656;rounded=1;" parent="1" vertex="1">
          <mxGeometry x="2155" y="490" width="110" height="49" as="geometry" />
        </mxCell>
        <mxCell id="Z9Bw9MqwhjAggTPwWbrQ-133" value="" style="edgeStyle=orthogonalEdgeStyle;rounded=0;orthogonalLoop=1;jettySize=auto;html=1;strokeColor=#A8201A;fontColor=#143642;fillColor=#FAE5C7;entryX=0;entryY=0.5;entryDx=0;entryDy=0;" parent="1" source="Z9Bw9MqwhjAggTPwWbrQ-129" target="Z9Bw9MqwhjAggTPwWbrQ-126" edge="1">
          <mxGeometry relative="1" as="geometry">
            <mxPoint x="2055" y="540" as="targetPoint" />
            <Array as="points">
              <mxPoint x="2050" y="515" />
            </Array>
          </mxGeometry>
        </mxCell>
        <mxCell id="Z9Bw9MqwhjAggTPwWbrQ-129" value="查询商户路由配置" style="whiteSpace=wrap;html=1;fillColor=#f8cecc;strokeColor=#b85450;rounded=1;" parent="1" vertex="1">
          <mxGeometry x="2000" y="356.5" width="110" height="43.5" as="geometry" />
        </mxCell>
        <mxCell id="Z9Bw9MqwhjAggTPwWbrQ-139" value="" style="edgeStyle=orthogonalEdgeStyle;rounded=0;orthogonalLoop=1;jettySize=auto;html=1;strokeColor=#A8201A;fontColor=#143642;fillColor=#FAE5C7;" parent="1" source="Z9Bw9MqwhjAggTPwWbrQ-136" target="Z9Bw9MqwhjAggTPwWbrQ-138" edge="1">
          <mxGeometry relative="1" as="geometry" />
        </mxCell>
        <mxCell id="Z9Bw9MqwhjAggTPwWbrQ-136" value="handler执行" style="whiteSpace=wrap;html=1;fillColor=#fff2cc;strokeColor=#d6b656;rounded=1;" parent="1" vertex="1">
          <mxGeometry x="2155" y="585" width="110" height="49" as="geometry" />
        </mxCell>
        <mxCell id="Z9Bw9MqwhjAggTPwWbrQ-138" value="redis缓存结果，return" style="rounded=1;whiteSpace=wrap;html=1;fillColor=#fff2cc;strokeColor=#d6b656;" parent="1" vertex="1">
          <mxGeometry x="2160" y="690" width="100" height="50" as="geometry" />
        </mxCell>
        <mxCell id="Z9Bw9MqwhjAggTPwWbrQ-140" value="" style="shape=singleArrow;whiteSpace=wrap;html=1;arrowWidth=0.4;arrowSize=0.4;fillColor=#FAE5C7;strokeColor=#0F8B8D;fontColor=#143642;rounded=1;fontStyle=1;strokeWidth=3;labelBackgroundColor=none;" parent="1" vertex="1">
          <mxGeometry x="1410" y="660" width="80" height="60" as="geometry" />
        </mxCell>
        <mxCell id="Z9Bw9MqwhjAggTPwWbrQ-143" value="" style="shape=process;whiteSpace=wrap;html=1;backgroundOutline=1;" parent="1" vertex="1">
          <mxGeometry x="1510" y="190" width="330" height="701" as="geometry" />
        </mxCell>
        <mxCell id="Z9Bw9MqwhjAggTPwWbrQ-147" value="" style="edgeStyle=orthogonalEdgeStyle;rounded=0;orthogonalLoop=1;jettySize=auto;html=1;strokeColor=#A8201A;fontColor=#143642;fillColor=#FAE5C7;" parent="1" source="Z9Bw9MqwhjAggTPwWbrQ-145" target="Z9Bw9MqwhjAggTPwWbrQ-146" edge="1">
          <mxGeometry relative="1" as="geometry" />
        </mxCell>
        <mxCell id="Z9Bw9MqwhjAggTPwWbrQ-145" value="会员号下当天有效，且不为临时账单的有效账单配置" style="whiteSpace=wrap;align=center;verticalAlign=middle;fontStyle=1;strokeWidth=3;fillColor=#FAE5C7;rounded=1;labelBackgroundColor=none;strokeColor=#0F8B8D;fontColor=#143642;" parent="1" vertex="1">
          <mxGeometry x="1620" y="201" width="90" height="60" as="geometry" />
        </mxCell>
        <mxCell id="Z9Bw9MqwhjAggTPwWbrQ-149" value="" style="edgeStyle=orthogonalEdgeStyle;rounded=0;orthogonalLoop=1;jettySize=auto;html=1;strokeColor=#A8201A;fontColor=#143642;fillColor=#FAE5C7;" parent="1" source="Z9Bw9MqwhjAggTPwWbrQ-146" target="Z9Bw9MqwhjAggTPwWbrQ-148" edge="1">
          <mxGeometry relative="1" as="geometry" />
        </mxCell>
        <mxCell id="Z9Bw9MqwhjAggTPwWbrQ-146" value="配置列表根据default/custom分组" style="whiteSpace=wrap;html=1;fillColor=#FAE5C7;strokeColor=#0F8B8D;fontColor=#143642;fontStyle=1;strokeWidth=3;rounded=1;labelBackgroundColor=none;" parent="1" vertex="1">
          <mxGeometry x="1605" y="321" width="120" height="60" as="geometry" />
        </mxCell>
        <mxCell id="Z9Bw9MqwhjAggTPwWbrQ-151" value="" style="edgeStyle=orthogonalEdgeStyle;rounded=0;orthogonalLoop=1;jettySize=auto;html=1;strokeColor=#A8201A;fontColor=#143642;fillColor=#FAE5C7;" parent="1" source="Z9Bw9MqwhjAggTPwWbrQ-148" target="Z9Bw9MqwhjAggTPwWbrQ-150" edge="1">
          <mxGeometry relative="1" as="geometry" />
        </mxCell>
        <mxCell id="Z9Bw9MqwhjAggTPwWbrQ-148" value="custom类型存在，全部保存到result" style="whiteSpace=wrap;html=1;fillColor=#FAE5C7;strokeColor=#0F8B8D;fontColor=#143642;fontStyle=1;strokeWidth=3;rounded=1;labelBackgroundColor=none;" parent="1" vertex="1">
          <mxGeometry x="1602.5" y="421" width="125" height="59" as="geometry" />
        </mxCell>
        <mxCell id="Z9Bw9MqwhjAggTPwWbrQ-153" value="" style="edgeStyle=orthogonalEdgeStyle;rounded=0;orthogonalLoop=1;jettySize=auto;html=1;strokeColor=#A8201A;fontColor=#143642;fillColor=#FAE5C7;" parent="1" source="Z9Bw9MqwhjAggTPwWbrQ-150" target="Z9Bw9MqwhjAggTPwWbrQ-152" edge="1">
          <mxGeometry relative="1" as="geometry" />
        </mxCell>
        <mxCell id="Z9Bw9MqwhjAggTPwWbrQ-150" value="custom不存在，保存default并return" style="whiteSpace=wrap;html=1;fillColor=#FAE5C7;strokeColor=#0F8B8D;fontColor=#143642;fontStyle=1;strokeWidth=3;rounded=1;labelBackgroundColor=none;" parent="1" vertex="1">
          <mxGeometry x="1605" y="521" width="125" height="59" as="geometry" />
        </mxCell>
        <mxCell id="Z9Bw9MqwhjAggTPwWbrQ-155" value="" style="edgeStyle=orthogonalEdgeStyle;rounded=0;orthogonalLoop=1;jettySize=auto;html=1;strokeColor=#A8201A;fontColor=#143642;fillColor=#FAE5C7;" parent="1" source="Z9Bw9MqwhjAggTPwWbrQ-152" target="Z9Bw9MqwhjAggTPwWbrQ-154" edge="1">
          <mxGeometry relative="1" as="geometry" />
        </mxCell>
        <mxCell id="Z9Bw9MqwhjAggTPwWbrQ-152" value="custom类型账单按商户类型，账单类型，传输类型，周期类型去重" style="whiteSpace=wrap;html=1;fillColor=#FAE5C7;strokeColor=#0F8B8D;fontColor=#143642;fontStyle=1;strokeWidth=3;rounded=1;labelBackgroundColor=none;" parent="1" vertex="1">
          <mxGeometry x="1605" y="620" width="125" height="59" as="geometry" />
        </mxCell>
        <mxCell id="Z9Bw9MqwhjAggTPwWbrQ-154" value="default类型账单与上一步返回的账单集合匹配，不匹配加入result" style="rounded=1;whiteSpace=wrap;html=1;fillColor=#FAE5C7;strokeColor=#0F8B8D;fontColor=#143642;fontStyle=1;strokeWidth=3;labelBackgroundColor=none;" parent="1" vertex="1">
          <mxGeometry x="1607.5" y="720" width="120" height="60" as="geometry" />
        </mxCell>
        <mxCell id="Z9Bw9MqwhjAggTPwWbrQ-159" value="" style="edgeStyle=orthogonalEdgeStyle;rounded=0;orthogonalLoop=1;jettySize=auto;html=1;strokeColor=#A8201A;fontColor=#143642;fillColor=#FAE5C7;" parent="1" source="Z9Bw9MqwhjAggTPwWbrQ-156" target="Z9Bw9MqwhjAggTPwWbrQ-158" edge="1">
          <mxGeometry relative="1" as="geometry" />
        </mxCell>
        <mxCell id="Z9Bw9MqwhjAggTPwWbrQ-199" value="" style="edgeStyle=orthogonalEdgeStyle;rounded=0;orthogonalLoop=1;jettySize=auto;html=1;strokeColor=#A8201A;fontColor=#143642;fillColor=#FAE5C7;entryX=1;entryY=0.5;entryDx=0;entryDy=0;" parent="1" source="Z9Bw9MqwhjAggTPwWbrQ-156" target="Z9Bw9MqwhjAggTPwWbrQ-105" edge="1">
          <mxGeometry relative="1" as="geometry">
            <mxPoint x="1370" y="510" as="targetPoint" />
            <Array as="points">
              <mxPoint x="1380" y="790" />
              <mxPoint x="1380" y="481" />
            </Array>
          </mxGeometry>
        </mxCell>
        <mxCell id="Z9Bw9MqwhjAggTPwWbrQ-156" value="循环配置列表，创建计划" style="rounded=1;whiteSpace=wrap;html=1;fillColor=#FAE5C7;strokeColor=#0F8B8D;fontColor=#143642;fontStyle=1;strokeWidth=3;labelBackgroundColor=none;" parent="1" vertex="1">
          <mxGeometry x="1223.75" y="760" width="120" height="60" as="geometry" />
        </mxCell>
        <mxCell id="Z9Bw9MqwhjAggTPwWbrQ-158" value="批量保存账单计划，添加create的job记录" style="rounded=1;whiteSpace=wrap;html=1;fillColor=#FAE5C7;strokeColor=#0F8B8D;fontColor=#143642;fontStyle=1;strokeWidth=3;labelBackgroundColor=none;" parent="1" vertex="1">
          <mxGeometry x="1223.75" y="870" width="120" height="60" as="geometry" />
        </mxCell>
        <mxCell id="Z9Bw9MqwhjAggTPwWbrQ-160" value="" style="shape=singleArrow;whiteSpace=wrap;html=1;arrowWidth=0.4;arrowSize=0.4;fillColor=#FAE5C7;strokeColor=#0F8B8D;fontColor=#143642;rounded=1;fontStyle=1;strokeWidth=3;labelBackgroundColor=none;direction=west;" parent="1" vertex="1">
          <mxGeometry x="1120" y="760" width="80" height="60" as="geometry" />
        </mxCell>
        <mxCell id="Z9Bw9MqwhjAggTPwWbrQ-161" value="" style="shape=process;whiteSpace=wrap;html=1;backgroundOutline=1;" parent="1" vertex="1">
          <mxGeometry x="610" y="321" width="450" height="701" as="geometry" />
        </mxCell>
        <mxCell id="Z9Bw9MqwhjAggTPwWbrQ-165" value="" style="edgeStyle=orthogonalEdgeStyle;rounded=0;orthogonalLoop=1;jettySize=auto;html=1;strokeColor=#A8201A;fontColor=#143642;fillColor=#FAE5C7;" parent="1" source="Z9Bw9MqwhjAggTPwWbrQ-163" target="Z9Bw9MqwhjAggTPwWbrQ-164" edge="1">
          <mxGeometry relative="1" as="geometry" />
        </mxCell>
        <mxCell id="Z9Bw9MqwhjAggTPwWbrQ-163" value="判断是否生成计划，临时类型不生成" style="rounded=1;whiteSpace=wrap;html=1;fillColor=#FAE5C7;fontStyle=1;strokeWidth=3;labelBackgroundColor=none;strokeColor=#0F8B8D;fontColor=#143642;" parent="1" vertex="1">
          <mxGeometry x="860" y="341" width="115" height="50" as="geometry" />
        </mxCell>
        <mxCell id="Z9Bw9MqwhjAggTPwWbrQ-167" value="" style="edgeStyle=orthogonalEdgeStyle;rounded=0;orthogonalLoop=1;jettySize=auto;html=1;strokeColor=#A8201A;fontColor=#143642;fillColor=#FAE5C7;" parent="1" source="Z9Bw9MqwhjAggTPwWbrQ-164" target="Z9Bw9MqwhjAggTPwWbrQ-166" edge="1">
          <mxGeometry relative="1" as="geometry" />
        </mxCell>
        <mxCell id="Z9Bw9MqwhjAggTPwWbrQ-164" value="循环会员号下商户号列表" style="rounded=1;whiteSpace=wrap;html=1;fillColor=#FAE5C7;fontStyle=1;strokeWidth=3;labelBackgroundColor=none;strokeColor=#0F8B8D;fontColor=#143642;" parent="1" vertex="1">
          <mxGeometry x="860" y="430" width="115" height="50" as="geometry" />
        </mxCell>
        <mxCell id="Z9Bw9MqwhjAggTPwWbrQ-169" value="" style="edgeStyle=orthogonalEdgeStyle;rounded=0;orthogonalLoop=1;jettySize=auto;html=1;strokeColor=#A8201A;fontColor=#143642;fillColor=#FAE5C7;" parent="1" source="Z9Bw9MqwhjAggTPwWbrQ-166" target="Z9Bw9MqwhjAggTPwWbrQ-168" edge="1">
          <mxGeometry relative="1" as="geometry" />
        </mxCell>
        <mxCell id="Z9Bw9MqwhjAggTPwWbrQ-170" value="否" style="edgeLabel;html=1;align=center;verticalAlign=middle;resizable=0;points=[];fontColor=#143642;" parent="Z9Bw9MqwhjAggTPwWbrQ-169" vertex="1" connectable="0">
          <mxGeometry x="-0.1514" y="-2" relative="1" as="geometry">
            <mxPoint x="1" as="offset" />
          </mxGeometry>
        </mxCell>
        <mxCell id="Z9Bw9MqwhjAggTPwWbrQ-172" value="" style="edgeStyle=orthogonalEdgeStyle;rounded=0;orthogonalLoop=1;jettySize=auto;html=1;strokeColor=#A8201A;fontColor=#143642;fillColor=#FAE5C7;" parent="1" source="Z9Bw9MqwhjAggTPwWbrQ-166" target="Z9Bw9MqwhjAggTPwWbrQ-171" edge="1">
          <mxGeometry relative="1" as="geometry" />
        </mxCell>
        <mxCell id="Z9Bw9MqwhjAggTPwWbrQ-173" value="是" style="edgeLabel;html=1;align=center;verticalAlign=middle;resizable=0;points=[];fontColor=#143642;" parent="Z9Bw9MqwhjAggTPwWbrQ-172" vertex="1" connectable="0">
          <mxGeometry x="-0.1463" y="-3" relative="1" as="geometry">
            <mxPoint as="offset" />
          </mxGeometry>
        </mxCell>
        <mxCell id="Z9Bw9MqwhjAggTPwWbrQ-166" value="config支持该商户类型" style="rhombus;whiteSpace=wrap;html=1;fillColor=#FAE5C7;strokeColor=#0F8B8D;fontColor=#143642;rounded=1;fontStyle=1;strokeWidth=3;labelBackgroundColor=none;" parent="1" vertex="1">
          <mxGeometry x="877.5" y="510.5" width="80" height="80" as="geometry" />
        </mxCell>
        <mxCell id="Z9Bw9MqwhjAggTPwWbrQ-168" value="return" style="rounded=1;whiteSpace=wrap;html=1;fillColor=#FAE5C7;strokeColor=#0F8B8D;fontColor=#143642;fontStyle=1;strokeWidth=3;labelBackgroundColor=none;" parent="1" vertex="1">
          <mxGeometry x="730" y="530.75" width="87.5" height="39.5" as="geometry" />
        </mxCell>
        <mxCell id="Z9Bw9MqwhjAggTPwWbrQ-175" value="" style="edgeStyle=orthogonalEdgeStyle;rounded=0;orthogonalLoop=1;jettySize=auto;html=1;strokeColor=#A8201A;fontColor=#143642;fillColor=#FAE5C7;" parent="1" source="Z9Bw9MqwhjAggTPwWbrQ-171" target="Z9Bw9MqwhjAggTPwWbrQ-174" edge="1">
          <mxGeometry relative="1" as="geometry" />
        </mxCell>
        <mxCell id="Z9Bw9MqwhjAggTPwWbrQ-176" value="商户号为nulll或者是新商户号" style="edgeLabel;html=1;align=center;verticalAlign=middle;resizable=0;points=[];fontColor=#143642;" parent="Z9Bw9MqwhjAggTPwWbrQ-175" vertex="1" connectable="0">
          <mxGeometry x="-0.2369" y="-2" relative="1" as="geometry">
            <mxPoint as="offset" />
          </mxGeometry>
        </mxCell>
        <mxCell id="Z9Bw9MqwhjAggTPwWbrQ-178" value="" style="edgeStyle=orthogonalEdgeStyle;rounded=0;orthogonalLoop=1;jettySize=auto;html=1;strokeColor=#A8201A;fontColor=#143642;fillColor=#FAE5C7;" parent="1" source="Z9Bw9MqwhjAggTPwWbrQ-171" target="Z9Bw9MqwhjAggTPwWbrQ-177" edge="1">
          <mxGeometry relative="1" as="geometry" />
        </mxCell>
        <mxCell id="Z9Bw9MqwhjAggTPwWbrQ-179" value="迁移商户" style="edgeLabel;html=1;align=center;verticalAlign=middle;resizable=0;points=[];fontColor=#143642;" parent="Z9Bw9MqwhjAggTPwWbrQ-178" vertex="1" connectable="0">
          <mxGeometry x="-0.1075" y="1" relative="1" as="geometry">
            <mxPoint as="offset" />
          </mxGeometry>
        </mxCell>
        <mxCell id="Z9Bw9MqwhjAggTPwWbrQ-171" value="根据memberId和merchantID查询sftp权限" style="rhombus;whiteSpace=wrap;html=1;fillColor=#FAE5C7;strokeColor=#0F8B8D;fontColor=#143642;rounded=1;fontStyle=1;strokeWidth=3;labelBackgroundColor=none;" parent="1" vertex="1">
          <mxGeometry x="871.25" y="620" width="92.5" height="108.5" as="geometry" />
        </mxCell>
        <mxCell id="Z9Bw9MqwhjAggTPwWbrQ-174" value="返回会员维度sftp信息" style="whiteSpace=wrap;html=1;fillColor=#FAE5C7;strokeColor=#0F8B8D;fontColor=#143642;rounded=1;fontStyle=1;strokeWidth=3;labelBackgroundColor=none;" parent="1" vertex="1">
          <mxGeometry x="590" y="641.5" width="120" height="60" as="geometry" />
        </mxCell>
        <mxCell id="Z9Bw9MqwhjAggTPwWbrQ-181" value="" style="edgeStyle=orthogonalEdgeStyle;rounded=0;orthogonalLoop=1;jettySize=auto;html=1;strokeColor=#A8201A;fontColor=#143642;fillColor=#FAE5C7;" parent="1" source="Z9Bw9MqwhjAggTPwWbrQ-177" target="Z9Bw9MqwhjAggTPwWbrQ-180" edge="1">
          <mxGeometry relative="1" as="geometry" />
        </mxCell>
        <mxCell id="Z9Bw9MqwhjAggTPwWbrQ-177" value="返回memberId和merchantId匹配的sftp信息" style="rounded=1;whiteSpace=wrap;html=1;fillColor=#FAE5C7;strokeColor=#0F8B8D;fontColor=#143642;fontStyle=1;strokeWidth=3;labelBackgroundColor=none;" parent="1" vertex="1">
          <mxGeometry x="857.5" y="790" width="120" height="60" as="geometry" />
        </mxCell>
        <mxCell id="Z9Bw9MqwhjAggTPwWbrQ-180" value="根据商户拥有的权限，S3/SFTP，并且账单配置支持该传输类型，那么创建计划" style="whiteSpace=wrap;html=1;fillColor=#FAE5C7;strokeColor=#0F8B8D;fontColor=#143642;rounded=1;fontStyle=1;strokeWidth=3;labelBackgroundColor=none;" parent="1" vertex="1">
          <mxGeometry x="857.5" y="900" width="120" height="60" as="geometry" />
        </mxCell>
        <mxCell id="Z9Bw9MqwhjAggTPwWbrQ-184" value="" style="edgeStyle=orthogonalEdgeStyle;rounded=0;orthogonalLoop=1;jettySize=auto;html=1;strokeColor=#A8201A;fontColor=#143642;fillColor=#FAE5C7;" parent="1" source="Z9Bw9MqwhjAggTPwWbrQ-182" target="Z9Bw9MqwhjAggTPwWbrQ-183" edge="1">
          <mxGeometry relative="1" as="geometry" />
        </mxCell>
        <mxCell id="Z9Bw9MqwhjAggTPwWbrQ-182" value="plan_execute" style="rounded=1;whiteSpace=wrap;html=1;strokeColor=#0F8B8D;fontColor=#143642;fillColor=#FAE5C7;" parent="1" vertex="1">
          <mxGeometry x="3020" y="30" width="100" height="40" as="geometry" />
        </mxCell>
        <mxCell id="Z9Bw9MqwhjAggTPwWbrQ-186" value="" style="edgeStyle=orthogonalEdgeStyle;rounded=0;orthogonalLoop=1;jettySize=auto;html=1;strokeColor=#A8201A;fontColor=#143642;fillColor=#FAE5C7;" parent="1" source="Z9Bw9MqwhjAggTPwWbrQ-183" edge="1">
          <mxGeometry relative="1" as="geometry">
            <mxPoint x="3070" y="217.5" as="targetPoint" />
          </mxGeometry>
        </mxCell>
        <mxCell id="Z9Bw9MqwhjAggTPwWbrQ-183" value="根据会员号（会员号可能为null）查询账单权限，return 权限列表" style="rounded=1;whiteSpace=wrap;html=1;fillColor=#FAE5C7;strokeColor=#0F8B8D;fontColor=#143642;" parent="1" vertex="1">
          <mxGeometry x="3010" y="120" width="120" height="60" as="geometry" />
        </mxCell>
        <mxCell id="Z9Bw9MqwhjAggTPwWbrQ-217" style="edgeStyle=orthogonalEdgeStyle;rounded=0;orthogonalLoop=1;jettySize=auto;html=1;exitX=0.5;exitY=1;exitDx=0;exitDy=0;entryX=0.5;entryY=0;entryDx=0;entryDy=0;strokeColor=#A8201A;fontColor=#143642;fillColor=#FAE5C7;" parent="1" source="Z9Bw9MqwhjAggTPwWbrQ-187" target="Z9Bw9MqwhjAggTPwWbrQ-190" edge="1">
          <mxGeometry relative="1" as="geometry" />
        </mxCell>
        <mxCell id="Z9Bw9MqwhjAggTPwWbrQ-187" value="分片广播" style="rounded=1;whiteSpace=wrap;html=1;fillColor=#FAE5C7;strokeColor=#0F8B8D;fontColor=#143642;" parent="1" vertex="1">
          <mxGeometry x="3020" y="331" width="100" height="40" as="geometry" />
        </mxCell>
        <mxCell id="Z9Bw9MqwhjAggTPwWbrQ-204" style="edgeStyle=orthogonalEdgeStyle;rounded=0;orthogonalLoop=1;jettySize=auto;html=1;exitX=0.5;exitY=1;exitDx=0;exitDy=0;strokeColor=#A8201A;fontColor=#143642;fillColor=#FAE5C7;" parent="1" source="Z9Bw9MqwhjAggTPwWbrQ-190" target="Z9Bw9MqwhjAggTPwWbrQ-193" edge="1">
          <mxGeometry relative="1" as="geometry" />
        </mxCell>
        <mxCell id="Z9Bw9MqwhjAggTPwWbrQ-190" value="筛选当天待执行计划，条件：执行时间已过，INIT，会员号" style="rounded=1;whiteSpace=wrap;html=1;fillColor=#FAE5C7;strokeColor=#0F8B8D;fontColor=#143642;" parent="1" vertex="1">
          <mxGeometry x="3020" y="410" width="100" height="58.5" as="geometry" />
        </mxCell>
        <mxCell id="Z9Bw9MqwhjAggTPwWbrQ-195" value="" style="edgeStyle=orthogonalEdgeStyle;rounded=0;orthogonalLoop=1;jettySize=auto;html=1;strokeColor=#A8201A;fontColor=#143642;fillColor=#FAE5C7;" parent="1" source="Z9Bw9MqwhjAggTPwWbrQ-193" target="Z9Bw9MqwhjAggTPwWbrQ-194" edge="1">
          <mxGeometry relative="1" as="geometry" />
        </mxCell>
        <mxCell id="Z9Bw9MqwhjAggTPwWbrQ-196" value="empty" style="edgeLabel;html=1;align=center;verticalAlign=middle;resizable=0;points=[];fontColor=#143642;" parent="Z9Bw9MqwhjAggTPwWbrQ-195" vertex="1" connectable="0">
          <mxGeometry x="-0.0667" y="1" relative="1" as="geometry">
            <mxPoint as="offset" />
          </mxGeometry>
        </mxCell>
        <mxCell id="Z9Bw9MqwhjAggTPwWbrQ-206" value="" style="edgeStyle=orthogonalEdgeStyle;rounded=0;orthogonalLoop=1;jettySize=auto;html=1;strokeColor=#A8201A;fontColor=#143642;fillColor=#FAE5C7;" parent="1" source="Z9Bw9MqwhjAggTPwWbrQ-193" target="Z9Bw9MqwhjAggTPwWbrQ-205" edge="1">
          <mxGeometry relative="1" as="geometry" />
        </mxCell>
        <mxCell id="Z9Bw9MqwhjAggTPwWbrQ-193" value="账单计划根据批次号分组" style="rhombus;whiteSpace=wrap;html=1;fillColor=#FAE5C7;strokeColor=#0F8B8D;fontColor=#143642;rounded=1;" parent="1" vertex="1">
          <mxGeometry x="3030" y="510.5" width="80" height="80" as="geometry" />
        </mxCell>
        <mxCell id="Z9Bw9MqwhjAggTPwWbrQ-194" value="return" style="whiteSpace=wrap;html=1;fillColor=#FAE5C7;strokeColor=#0F8B8D;fontColor=#143642;rounded=1;" parent="1" vertex="1">
          <mxGeometry x="2870" y="530.75" width="100" height="41" as="geometry" />
        </mxCell>
        <mxCell id="Z9Bw9MqwhjAggTPwWbrQ-219" value="" style="edgeStyle=orthogonalEdgeStyle;rounded=0;orthogonalLoop=1;jettySize=auto;html=1;strokeColor=#A8201A;fontColor=#143642;fillColor=#FAE5C7;" parent="1" source="Z9Bw9MqwhjAggTPwWbrQ-205" target="Z9Bw9MqwhjAggTPwWbrQ-218" edge="1">
          <mxGeometry relative="1" as="geometry" />
        </mxCell>
        <mxCell id="Z9Bw9MqwhjAggTPwWbrQ-205" value="循环计划分组map" style="shape=parallelogram;perimeter=parallelogramPerimeter;whiteSpace=wrap;html=1;fixedSize=1;fillColor=#FAE5C7;strokeColor=#0F8B8D;fontColor=#143642;rounded=1;" parent="1" vertex="1">
          <mxGeometry x="3010" y="630" width="120" height="60" as="geometry" />
        </mxCell>
        <mxCell id="Z9Bw9MqwhjAggTPwWbrQ-216" style="edgeStyle=orthogonalEdgeStyle;rounded=0;orthogonalLoop=1;jettySize=auto;html=1;exitX=0.5;exitY=1;exitDx=0;exitDy=0;entryX=0.5;entryY=0;entryDx=0;entryDy=0;strokeColor=#A8201A;fontColor=#143642;fillColor=#FAE5C7;" parent="1" source="Z9Bw9MqwhjAggTPwWbrQ-207" target="Z9Bw9MqwhjAggTPwWbrQ-187" edge="1">
          <mxGeometry relative="1" as="geometry" />
        </mxCell>
        <mxCell id="Z9Bw9MqwhjAggTPwWbrQ-207" value="循环权限列表" style="shape=parallelogram;perimeter=parallelogramPerimeter;whiteSpace=wrap;html=1;fixedSize=1;fillColor=#FAE5C7;strokeColor=#0F8B8D;fontColor=#143642;rounded=1;" parent="1" vertex="1">
          <mxGeometry x="3010" y="230" width="120" height="60" as="geometry" />
        </mxCell>
        <mxCell id="Z9Bw9MqwhjAggTPwWbrQ-221" style="edgeStyle=orthogonalEdgeStyle;rounded=0;orthogonalLoop=1;jettySize=auto;html=1;exitX=0.5;exitY=1;exitDx=0;exitDy=0;entryX=0.5;entryY=0;entryDx=0;entryDy=0;strokeColor=#A8201A;fontColor=#143642;fillColor=#FAE5C7;" parent="1" source="Z9Bw9MqwhjAggTPwWbrQ-218" target="Z9Bw9MqwhjAggTPwWbrQ-220" edge="1">
          <mxGeometry relative="1" as="geometry">
            <Array as="points">
              <mxPoint x="3070" y="831" />
            </Array>
          </mxGeometry>
        </mxCell>
        <mxCell id="Z9Bw9MqwhjAggTPwWbrQ-218" value="循环每个批次下的账单计划" style="shape=parallelogram;perimeter=parallelogramPerimeter;whiteSpace=wrap;html=1;fixedSize=1;fillColor=#FAE5C7;strokeColor=#0F8B8D;fontColor=#143642;rounded=1;" parent="1" vertex="1">
          <mxGeometry x="3010" y="730" width="120" height="60" as="geometry" />
        </mxCell>
        <mxCell id="Z9Bw9MqwhjAggTPwWbrQ-223" value="" style="edgeStyle=orthogonalEdgeStyle;rounded=0;orthogonalLoop=1;jettySize=auto;html=1;strokeColor=#A8201A;fontColor=#143642;fillColor=#FAE5C7;" parent="1" source="Z9Bw9MqwhjAggTPwWbrQ-220" target="Z9Bw9MqwhjAggTPwWbrQ-222" edge="1">
          <mxGeometry relative="1" as="geometry" />
        </mxCell>
        <mxCell id="Z9Bw9MqwhjAggTPwWbrQ-220" value="计划初始化：状态INIT-》PROCESSING&lt;br&gt;保存计划到账单信息表，作为最新的有效版本" style="rounded=1;whiteSpace=wrap;html=1;fillColor=#FAE5C7;strokeColor=#0F8B8D;fontColor=#143642;" parent="1" vertex="1">
          <mxGeometry x="3005" y="831" width="130" height="89" as="geometry" />
        </mxCell>
        <mxCell id="Z9Bw9MqwhjAggTPwWbrQ-224" style="edgeStyle=orthogonalEdgeStyle;rounded=0;orthogonalLoop=1;jettySize=auto;html=1;exitX=1;exitY=0.5;exitDx=0;exitDy=0;entryX=1;entryY=0.5;entryDx=0;entryDy=0;strokeColor=#A8201A;fontColor=#143642;fillColor=#FAE5C7;" parent="1" source="Z9Bw9MqwhjAggTPwWbrQ-222" target="Z9Bw9MqwhjAggTPwWbrQ-218" edge="1">
          <mxGeometry relative="1" as="geometry">
            <Array as="points">
              <mxPoint x="3170" y="990" />
              <mxPoint x="3170" y="760" />
            </Array>
          </mxGeometry>
        </mxCell>
        <mxCell id="Z9Bw9MqwhjAggTPwWbrQ-226" value="" style="edgeStyle=orthogonalEdgeStyle;rounded=0;orthogonalLoop=1;jettySize=auto;html=1;strokeColor=#A8201A;fontColor=#143642;fillColor=#FAE5C7;" parent="1" source="Z9Bw9MqwhjAggTPwWbrQ-222" target="Z9Bw9MqwhjAggTPwWbrQ-225" edge="1">
          <mxGeometry relative="1" as="geometry" />
        </mxCell>
        <mxCell id="Z9Bw9MqwhjAggTPwWbrQ-222" value="根据handler找出账单执行器，执行计划，生成对账" style="rounded=1;whiteSpace=wrap;html=1;fillColor=#FAE5C7;strokeColor=#0F8B8D;fontColor=#143642;" parent="1" vertex="1">
          <mxGeometry x="3020" y="960" width="100" height="60" as="geometry" />
        </mxCell>
        <mxCell id="Z9Bw9MqwhjAggTPwWbrQ-227" style="edgeStyle=orthogonalEdgeStyle;rounded=0;orthogonalLoop=1;jettySize=auto;html=1;exitX=1;exitY=0.5;exitDx=0;exitDy=0;entryX=1;entryY=0.5;entryDx=0;entryDy=0;strokeColor=#A8201A;fontColor=#143642;fillColor=#FAE5C7;" parent="1" source="Z9Bw9MqwhjAggTPwWbrQ-225" target="Z9Bw9MqwhjAggTPwWbrQ-205" edge="1">
          <mxGeometry relative="1" as="geometry">
            <Array as="points">
              <mxPoint x="3230" y="1080" />
              <mxPoint x="3230" y="660" />
            </Array>
          </mxGeometry>
        </mxCell>
        <mxCell id="Z9Bw9MqwhjAggTPwWbrQ-228" style="edgeStyle=orthogonalEdgeStyle;rounded=0;orthogonalLoop=1;jettySize=auto;html=1;exitX=1;exitY=0.5;exitDx=0;exitDy=0;strokeColor=#A8201A;fontColor=#143642;fillColor=#FAE5C7;entryX=1;entryY=0.5;entryDx=0;entryDy=0;" parent="1" source="Z9Bw9MqwhjAggTPwWbrQ-225" target="Z9Bw9MqwhjAggTPwWbrQ-207" edge="1">
          <mxGeometry relative="1" as="geometry">
            <mxPoint x="3330" y="600" as="targetPoint" />
            <Array as="points">
              <mxPoint x="3290" y="1080" />
              <mxPoint x="3290" y="260" />
            </Array>
          </mxGeometry>
        </mxCell>
        <mxCell id="Z9Bw9MqwhjAggTPwWbrQ-230" style="edgeStyle=orthogonalEdgeStyle;rounded=0;orthogonalLoop=1;jettySize=auto;html=1;exitX=0.5;exitY=1;exitDx=0;exitDy=0;entryX=0.5;entryY=0;entryDx=0;entryDy=0;strokeColor=#A8201A;fontColor=#143642;fillColor=#FAE5C7;" parent="1" source="Z9Bw9MqwhjAggTPwWbrQ-225" target="Z9Bw9MqwhjAggTPwWbrQ-229" edge="1">
          <mxGeometry relative="1" as="geometry" />
        </mxCell>
        <mxCell id="Z9Bw9MqwhjAggTPwWbrQ-225" value="保存打包初始化记录，会员号，批次号" style="rounded=1;whiteSpace=wrap;html=1;fillColor=#FAE5C7;strokeColor=#0F8B8D;fontColor=#143642;" parent="1" vertex="1">
          <mxGeometry x="3010" y="1050" width="120" height="60" as="geometry" />
        </mxCell>
        <mxCell id="Z9Bw9MqwhjAggTPwWbrQ-229" value="job执行记录保存" style="rounded=1;whiteSpace=wrap;html=1;fillColor=#FAE5C7;strokeColor=#0F8B8D;fontColor=#143642;" parent="1" vertex="1">
          <mxGeometry x="3015" y="1150" width="110" height="50" as="geometry" />
        </mxCell>
        <mxCell id="Z9Bw9MqwhjAggTPwWbrQ-234" value="" style="edgeStyle=orthogonalEdgeStyle;rounded=0;orthogonalLoop=1;jettySize=auto;html=1;strokeColor=#A8201A;fontColor=#143642;fillColor=#FAE5C7;" parent="1" source="Z9Bw9MqwhjAggTPwWbrQ-231" target="Z9Bw9MqwhjAggTPwWbrQ-233" edge="1">
          <mxGeometry relative="1" as="geometry" />
        </mxCell>
        <mxCell id="Z9Bw9MqwhjAggTPwWbrQ-231" value="bill_check巡检" style="rounded=1;whiteSpace=wrap;html=1;strokeColor=#0F8B8D;fontColor=#143642;fillColor=#FAE5C7;" parent="1" vertex="1">
          <mxGeometry x="3910" y="30" width="100" height="40" as="geometry" />
        </mxCell>
        <mxCell id="Z9Bw9MqwhjAggTPwWbrQ-236" value="" style="edgeStyle=orthogonalEdgeStyle;rounded=0;orthogonalLoop=1;jettySize=auto;html=1;strokeColor=#A8201A;fontColor=#143642;fillColor=#FAE5C7;" parent="1" source="Z9Bw9MqwhjAggTPwWbrQ-233" target="Z9Bw9MqwhjAggTPwWbrQ-235" edge="1">
          <mxGeometry relative="1" as="geometry" />
        </mxCell>
        <mxCell id="Z9Bw9MqwhjAggTPwWbrQ-237" value="存在" style="edgeLabel;html=1;align=center;verticalAlign=middle;resizable=0;points=[];fontColor=#143642;" parent="Z9Bw9MqwhjAggTPwWbrQ-236" vertex="1" connectable="0">
          <mxGeometry x="-0.1" y="-1" relative="1" as="geometry">
            <mxPoint as="offset" />
          </mxGeometry>
        </mxCell>
        <mxCell id="Z9Bw9MqwhjAggTPwWbrQ-239" value="" style="edgeStyle=orthogonalEdgeStyle;rounded=0;orthogonalLoop=1;jettySize=auto;html=1;strokeColor=#A8201A;fontColor=#143642;fillColor=#FAE5C7;" parent="1" source="Z9Bw9MqwhjAggTPwWbrQ-233" target="Z9Bw9MqwhjAggTPwWbrQ-238" edge="1">
          <mxGeometry relative="1" as="geometry" />
        </mxCell>
        <mxCell id="Z9Bw9MqwhjAggTPwWbrQ-240" value="否" style="edgeLabel;html=1;align=center;verticalAlign=middle;resizable=0;points=[];fontColor=#143642;" parent="Z9Bw9MqwhjAggTPwWbrQ-239" vertex="1" connectable="0">
          <mxGeometry x="-0.1333" y="-4" relative="1" as="geometry">
            <mxPoint as="offset" />
          </mxGeometry>
        </mxCell>
        <mxCell id="Z9Bw9MqwhjAggTPwWbrQ-233" value="查询当天巡检记录" style="rhombus;whiteSpace=wrap;html=1;fillColor=#FAE5C7;strokeColor=#0F8B8D;fontColor=#143642;rounded=1;" parent="1" vertex="1">
          <mxGeometry x="3920" y="130" width="80" height="80" as="geometry" />
        </mxCell>
        <mxCell id="Z9Bw9MqwhjAggTPwWbrQ-235" value="return" style="rounded=1;whiteSpace=wrap;html=1;fillColor=#FAE5C7;strokeColor=#0F8B8D;fontColor=#143642;" parent="1" vertex="1">
          <mxGeometry x="3780" y="150" width="80" height="40" as="geometry" />
        </mxCell>
        <mxCell id="Z9Bw9MqwhjAggTPwWbrQ-242" value="" style="edgeStyle=orthogonalEdgeStyle;rounded=0;orthogonalLoop=1;jettySize=auto;html=1;strokeColor=#A8201A;fontColor=#143642;fillColor=#FAE5C7;" parent="1" source="Z9Bw9MqwhjAggTPwWbrQ-238" target="Z9Bw9MqwhjAggTPwWbrQ-241" edge="1">
          <mxGeometry relative="1" as="geometry" />
        </mxCell>
        <mxCell id="Z9Bw9MqwhjAggTPwWbrQ-238" value="获取巡检时间范围列表" style="rounded=1;whiteSpace=wrap;html=1;fillColor=#FAE5C7;strokeColor=#0F8B8D;fontColor=#143642;" parent="1" vertex="1">
          <mxGeometry x="3905" y="261" width="110" height="41" as="geometry" />
        </mxCell>
        <mxCell id="Z9Bw9MqwhjAggTPwWbrQ-245" style="edgeStyle=orthogonalEdgeStyle;rounded=0;orthogonalLoop=1;jettySize=auto;html=1;exitX=0.5;exitY=1;exitDx=0;exitDy=0;strokeColor=#A8201A;fontColor=#143642;fillColor=#FAE5C7;" parent="1" source="Z9Bw9MqwhjAggTPwWbrQ-241" target="Z9Bw9MqwhjAggTPwWbrQ-243" edge="1">
          <mxGeometry relative="1" as="geometry" />
        </mxCell>
        <mxCell id="Z9Bw9MqwhjAggTPwWbrQ-241" value="循环时间范围列表" style="shape=parallelogram;perimeter=parallelogramPerimeter;whiteSpace=wrap;html=1;fixedSize=1;fillColor=#FAE5C7;strokeColor=#0F8B8D;fontColor=#143642;rounded=1;" parent="1" vertex="1">
          <mxGeometry x="3900" y="336" width="120" height="60" as="geometry" />
        </mxCell>
        <mxCell id="Z9Bw9MqwhjAggTPwWbrQ-248" value="" style="edgeStyle=orthogonalEdgeStyle;rounded=0;orthogonalLoop=1;jettySize=auto;html=1;strokeColor=#A8201A;fontColor=#143642;fillColor=#FAE5C7;" parent="1" source="Z9Bw9MqwhjAggTPwWbrQ-243" target="Z9Bw9MqwhjAggTPwWbrQ-247" edge="1">
          <mxGeometry relative="1" as="geometry" />
        </mxCell>
        <mxCell id="Z9Bw9MqwhjAggTPwWbrQ-243" value="获取时间范围内所有success的计划" style="rounded=1;whiteSpace=wrap;html=1;fillColor=#FAE5C7;strokeColor=#0F8B8D;fontColor=#143642;" parent="1" vertex="1">
          <mxGeometry x="3900" y="430" width="120" height="60" as="geometry" />
        </mxCell>
        <mxCell id="Z9Bw9MqwhjAggTPwWbrQ-250" value="" style="edgeStyle=orthogonalEdgeStyle;rounded=0;orthogonalLoop=1;jettySize=auto;html=1;strokeColor=#A8201A;fontColor=#143642;fillColor=#FAE5C7;" parent="1" source="Z9Bw9MqwhjAggTPwWbrQ-247" target="Z9Bw9MqwhjAggTPwWbrQ-249" edge="1">
          <mxGeometry relative="1" as="geometry" />
        </mxCell>
        <mxCell id="Z9Bw9MqwhjAggTPwWbrQ-247" value="循环计划列表" style="shape=parallelogram;perimeter=parallelogramPerimeter;whiteSpace=wrap;html=1;fixedSize=1;fillColor=#FAE5C7;strokeColor=#0F8B8D;fontColor=#143642;rounded=1;" parent="1" vertex="1">
          <mxGeometry x="3900" y="525" width="120" height="60" as="geometry" />
        </mxCell>
        <mxCell id="Z9Bw9MqwhjAggTPwWbrQ-252" value="" style="edgeStyle=orthogonalEdgeStyle;rounded=0;orthogonalLoop=1;jettySize=auto;html=1;strokeColor=#A8201A;fontColor=#143642;fillColor=#FAE5C7;" parent="1" source="Z9Bw9MqwhjAggTPwWbrQ-249" edge="1">
          <mxGeometry relative="1" as="geometry">
            <mxPoint x="3960" y="720" as="targetPoint" />
          </mxGeometry>
        </mxCell>
        <mxCell id="Z9Bw9MqwhjAggTPwWbrQ-249" value="根据计划中模版代码，获取巡检器，检查计划" style="rounded=1;whiteSpace=wrap;html=1;fillColor=#FAE5C7;strokeColor=#0F8B8D;fontColor=#143642;" parent="1" vertex="1">
          <mxGeometry x="3900" y="620" width="120" height="60" as="geometry" />
        </mxCell>
        <mxCell id="Z9Bw9MqwhjAggTPwWbrQ-255" value="是" style="edgeStyle=orthogonalEdgeStyle;rounded=0;orthogonalLoop=1;jettySize=auto;html=1;strokeColor=#A8201A;fontColor=#143642;fillColor=#FAE5C7;" parent="1" source="Z9Bw9MqwhjAggTPwWbrQ-253" target="Z9Bw9MqwhjAggTPwWbrQ-254" edge="1">
          <mxGeometry relative="1" as="geometry" />
        </mxCell>
        <mxCell id="Z9Bw9MqwhjAggTPwWbrQ-256" style="edgeStyle=orthogonalEdgeStyle;rounded=0;orthogonalLoop=1;jettySize=auto;html=1;exitX=1;exitY=0.5;exitDx=0;exitDy=0;strokeColor=#A8201A;fontColor=#143642;fillColor=#FAE5C7;entryX=1;entryY=0.5;entryDx=0;entryDy=0;" parent="1" source="Z9Bw9MqwhjAggTPwWbrQ-253" target="Z9Bw9MqwhjAggTPwWbrQ-247" edge="1">
          <mxGeometry relative="1" as="geometry">
            <mxPoint x="4120" y="430" as="targetPoint" />
            <Array as="points">
              <mxPoint x="4060" y="760" />
              <mxPoint x="4060" y="560" />
              <mxPoint x="4010" y="560" />
            </Array>
          </mxGeometry>
        </mxCell>
        <mxCell id="Z9Bw9MqwhjAggTPwWbrQ-257" style="edgeStyle=orthogonalEdgeStyle;rounded=0;orthogonalLoop=1;jettySize=auto;html=1;exitX=1;exitY=0.5;exitDx=0;exitDy=0;entryX=1;entryY=0.25;entryDx=0;entryDy=0;strokeColor=#A8201A;fontColor=#143642;fillColor=#FAE5C7;" parent="1" source="Z9Bw9MqwhjAggTPwWbrQ-253" target="Z9Bw9MqwhjAggTPwWbrQ-241" edge="1">
          <mxGeometry relative="1" as="geometry">
            <Array as="points">
              <mxPoint x="4110" y="760" />
              <mxPoint x="4110" y="366" />
              <mxPoint x="4015" y="366" />
            </Array>
          </mxGeometry>
        </mxCell>
        <mxCell id="Z9Bw9MqwhjAggTPwWbrQ-259" value="" style="edgeStyle=orthogonalEdgeStyle;rounded=0;orthogonalLoop=1;jettySize=auto;html=1;strokeColor=#A8201A;fontColor=#143642;fillColor=#FAE5C7;" parent="1" source="Z9Bw9MqwhjAggTPwWbrQ-253" target="Z9Bw9MqwhjAggTPwWbrQ-258" edge="1">
          <mxGeometry relative="1" as="geometry" />
        </mxCell>
        <mxCell id="Z9Bw9MqwhjAggTPwWbrQ-253" value="total 不等plan.total" style="rhombus;whiteSpace=wrap;html=1;fillColor=#FAE5C7;strokeColor=#0F8B8D;fontColor=#143642;rounded=1;" parent="1" vertex="1">
          <mxGeometry x="3920" y="720" width="80" height="80" as="geometry" />
        </mxCell>
        <mxCell id="Z9Bw9MqwhjAggTPwWbrQ-254" value="log.error" style="rounded=1;whiteSpace=wrap;html=1;fillColor=#FAE5C7;strokeColor=#0F8B8D;fontColor=#143642;" parent="1" vertex="1">
          <mxGeometry x="3780" y="740" width="80" height="40" as="geometry" />
        </mxCell>
        <mxCell id="Z9Bw9MqwhjAggTPwWbrQ-258" value="job巡检记录保存" style="rounded=1;whiteSpace=wrap;html=1;fillColor=#FAE5C7;strokeColor=#0F8B8D;fontColor=#143642;" parent="1" vertex="1">
          <mxGeometry x="3900" y="840" width="120" height="60" as="geometry" />
        </mxCell>
        <mxCell id="Z9Bw9MqwhjAggTPwWbrQ-262" value="" style="edgeStyle=orthogonalEdgeStyle;rounded=0;orthogonalLoop=1;jettySize=auto;html=1;strokeColor=#A8201A;fontColor=#143642;fillColor=#FAE5C7;" parent="1" source="Z9Bw9MqwhjAggTPwWbrQ-260" target="Z9Bw9MqwhjAggTPwWbrQ-261" edge="1">
          <mxGeometry relative="1" as="geometry" />
        </mxCell>
        <mxCell id="Z9Bw9MqwhjAggTPwWbrQ-260" value="execute方法" style="rounded=1;whiteSpace=wrap;html=1;strokeColor=#0F8B8D;fontColor=#143642;fillColor=#FAE5C7;" parent="1" vertex="1">
          <mxGeometry x="4670" y="30" width="100" height="40" as="geometry" />
        </mxCell>
        <mxCell id="Z9Bw9MqwhjAggTPwWbrQ-264" value="" style="edgeStyle=orthogonalEdgeStyle;rounded=0;orthogonalLoop=1;jettySize=auto;html=1;strokeColor=#A8201A;fontColor=#143642;fillColor=#FAE5C7;" parent="1" source="Z9Bw9MqwhjAggTPwWbrQ-261" target="Z9Bw9MqwhjAggTPwWbrQ-263" edge="1">
          <mxGeometry relative="1" as="geometry" />
        </mxCell>
        <mxCell id="Z9Bw9MqwhjAggTPwWbrQ-261" value="创建临时路径" style="whiteSpace=wrap;html=1;fillColor=#FAE5C7;strokeColor=#0F8B8D;fontColor=#143642;rounded=1;" parent="1" vertex="1">
          <mxGeometry x="4670" y="110" width="100" height="30" as="geometry" />
        </mxCell>
        <mxCell id="Z9Bw9MqwhjAggTPwWbrQ-263" value="获取数据加载器，根据HandlerDefine().getProtocolType" style="rounded=1;whiteSpace=wrap;html=1;fillColor=#FAE5C7;strokeColor=#0F8B8D;fontColor=#143642;" parent="1" vertex="1">
          <mxGeometry x="4662.5" y="180" width="115" height="59" as="geometry" />
        </mxCell>
        <mxCell id="76SzoQVsWtYvFKMPcrMi-3" value="" style="edgeStyle=orthogonalEdgeStyle;rounded=0;orthogonalLoop=1;jettySize=auto;html=1;" parent="1" source="76SzoQVsWtYvFKMPcrMi-1" target="76SzoQVsWtYvFKMPcrMi-2" edge="1">
          <mxGeometry relative="1" as="geometry" />
        </mxCell>
        <mxCell id="76SzoQVsWtYvFKMPcrMi-1" value="开始" style="rounded=1;whiteSpace=wrap;html=1;" parent="1" vertex="1">
          <mxGeometry x="5180" y="171" width="120" height="60" as="geometry" />
        </mxCell>
        <mxCell id="76SzoQVsWtYvFKMPcrMi-5" value="" style="edgeStyle=orthogonalEdgeStyle;rounded=0;orthogonalLoop=1;jettySize=auto;html=1;" parent="1" source="76SzoQVsWtYvFKMPcrMi-2" target="76SzoQVsWtYvFKMPcrMi-4" edge="1">
          <mxGeometry relative="1" as="geometry" />
        </mxCell>
        <mxCell id="76SzoQVsWtYvFKMPcrMi-2" value="查询redis" style="rounded=1;whiteSpace=wrap;html=1;" parent="1" vertex="1">
          <mxGeometry x="5180" y="281" width="120" height="60" as="geometry" />
        </mxCell>
        <mxCell id="76SzoQVsWtYvFKMPcrMi-7" value="" style="edgeStyle=orthogonalEdgeStyle;rounded=0;orthogonalLoop=1;jettySize=auto;html=1;" parent="1" source="76SzoQVsWtYvFKMPcrMi-4" target="76SzoQVsWtYvFKMPcrMi-6" edge="1">
          <mxGeometry relative="1" as="geometry" />
        </mxCell>
        <mxCell id="76SzoQVsWtYvFKMPcrMi-8" value="无值" style="edgeLabel;html=1;align=center;verticalAlign=middle;resizable=0;points=[];" parent="76SzoQVsWtYvFKMPcrMi-7" vertex="1" connectable="0">
          <mxGeometry x="-0.521" y="-2" relative="1" as="geometry">
            <mxPoint as="offset" />
          </mxGeometry>
        </mxCell>
        <mxCell id="76SzoQVsWtYvFKMPcrMi-4" value="redis是否有值" style="rhombus;whiteSpace=wrap;html=1;rounded=1;" parent="1" vertex="1">
          <mxGeometry x="5195" y="381" width="90" height="89" as="geometry" />
        </mxCell>
        <mxCell id="76SzoQVsWtYvFKMPcrMi-10" value="" style="edgeStyle=orthogonalEdgeStyle;rounded=0;orthogonalLoop=1;jettySize=auto;html=1;" parent="1" source="76SzoQVsWtYvFKMPcrMi-6" target="76SzoQVsWtYvFKMPcrMi-9" edge="1">
          <mxGeometry relative="1" as="geometry" />
        </mxCell>
        <mxCell id="76SzoQVsWtYvFKMPcrMi-6" value="获取路由配置" style="whiteSpace=wrap;html=1;rounded=1;" parent="1" vertex="1">
          <mxGeometry x="5180" y="511.75" width="120" height="60" as="geometry" />
        </mxCell>
        <mxCell id="76SzoQVsWtYvFKMPcrMi-12" value="" style="edgeStyle=orthogonalEdgeStyle;rounded=0;orthogonalLoop=1;jettySize=auto;html=1;" parent="1" source="76SzoQVsWtYvFKMPcrMi-9" target="76SzoQVsWtYvFKMPcrMi-11" edge="1">
          <mxGeometry relative="1" as="geometry" />
        </mxCell>
        <mxCell id="76SzoQVsWtYvFKMPcrMi-9" value="获取路由维度配置" style="whiteSpace=wrap;html=1;rounded=1;" parent="1" vertex="1">
          <mxGeometry x="5180" y="610" width="120" height="60" as="geometry" />
        </mxCell>
        <mxCell id="76SzoQVsWtYvFKMPcrMi-14" value="" style="edgeStyle=orthogonalEdgeStyle;rounded=0;orthogonalLoop=1;jettySize=auto;html=1;" parent="1" source="76SzoQVsWtYvFKMPcrMi-11" target="76SzoQVsWtYvFKMPcrMi-13" edge="1">
          <mxGeometry relative="1" as="geometry" />
        </mxCell>
        <mxCell id="76SzoQVsWtYvFKMPcrMi-11" value="获取策略处理器" style="whiteSpace=wrap;html=1;rounded=1;" parent="1" vertex="1">
          <mxGeometry x="5180" y="710" width="120" height="60" as="geometry" />
        </mxCell>
        <mxCell id="76SzoQVsWtYvFKMPcrMi-16" value="" style="edgeStyle=orthogonalEdgeStyle;rounded=0;orthogonalLoop=1;jettySize=auto;html=1;" parent="1" source="76SzoQVsWtYvFKMPcrMi-13" target="76SzoQVsWtYvFKMPcrMi-15" edge="1">
          <mxGeometry relative="1" as="geometry" />
        </mxCell>
        <mxCell id="76SzoQVsWtYvFKMPcrMi-13" value="路由计算" style="whiteSpace=wrap;html=1;rounded=1;" parent="1" vertex="1">
          <mxGeometry x="5180" y="810" width="120" height="60" as="geometry" />
        </mxCell>
        <mxCell id="76SzoQVsWtYvFKMPcrMi-18" value="" style="edgeStyle=orthogonalEdgeStyle;rounded=0;orthogonalLoop=1;jettySize=auto;html=1;" parent="1" source="76SzoQVsWtYvFKMPcrMi-15" target="76SzoQVsWtYvFKMPcrMi-17" edge="1">
          <mxGeometry relative="1" as="geometry" />
        </mxCell>
        <mxCell id="76SzoQVsWtYvFKMPcrMi-15" value="路由结果返回" style="whiteSpace=wrap;html=1;rounded=1;" parent="1" vertex="1">
          <mxGeometry x="5180" y="920" width="120" height="60" as="geometry" />
        </mxCell>
        <mxCell id="76SzoQVsWtYvFKMPcrMi-17" value="结束" style="whiteSpace=wrap;html=1;rounded=1;" parent="1" vertex="1">
          <mxGeometry x="5180" y="1022" width="120" height="60" as="geometry" />
        </mxCell>
        <mxCell id="76SzoQVsWtYvFKMPcrMi-19" value="" style="endArrow=classic;html=1;rounded=0;exitX=1;exitY=0.5;exitDx=0;exitDy=0;edgeStyle=orthogonalEdgeStyle;entryX=1;entryY=0.5;entryDx=0;entryDy=0;" parent="1" source="76SzoQVsWtYvFKMPcrMi-4" target="76SzoQVsWtYvFKMPcrMi-17" edge="1">
          <mxGeometry width="50" height="50" relative="1" as="geometry">
            <mxPoint x="5290" y="430" as="sourcePoint" />
            <mxPoint x="5360" y="420" as="targetPoint" />
            <Array as="points">
              <mxPoint x="5380" y="426" />
              <mxPoint x="5380" y="1052" />
            </Array>
          </mxGeometry>
        </mxCell>
        <mxCell id="76SzoQVsWtYvFKMPcrMi-20" value="有值" style="edgeLabel;html=1;align=center;verticalAlign=middle;resizable=0;points=[];" parent="76SzoQVsWtYvFKMPcrMi-19" vertex="1" connectable="0">
          <mxGeometry x="-0.8977" y="-2" relative="1" as="geometry">
            <mxPoint y="1" as="offset" />
          </mxGeometry>
        </mxCell>
      </root>
    </mxGraphModel>
  </diagram>
</mxfile>
